<?xml version="1.0" encoding="utf-8"?>
<!-- Generator: Adobe Illustrator 16.0.0, SVG Export Plug-In . SVG Version: 6.00 Build 0)  -->
<!DOCTYPE svg PUBLIC "-//W3C//DTD SVG 1.1//EN" "http://www.w3.org/Graphics/SVG/1.1/DTD/svg11.dtd">
<svg version="1.1" id="Layer_1" xmlns="http://www.w3.org/2000/svg" xmlns:xlink="http://www.w3.org/1999/xlink" x="0px" y="0px"
	  width="45px" height="45px" viewBox="0 0 45 45" enable-background="new 0 0 45 45" xml:space="preserve">
<g>
<path d="M21.16 20.927c-3.38-.838-1.53-3.789 1.21-3.745 2.658.043 4.01 2.907 5.215 2.76 1.208-.15 2.236-1.995.338-3.646-1.643-1.43-3.718-2.218-6.907-1.922-2.502.232-4.878 1.873-5.168 5.074-.29 3.203 3.43 4.83 6.377 5.273 2.064.31 4.88 1.33 3.189 3.3-1.554 1.812-4.493.691-5.266.2-.773-.496-1.644-2.27-3.094-2.17-1.452.096-2.166 2.04-.385 3.743 1.595 1.526 3.334 2.364 7.052 2.167 3.722-.198 7.054-3.546 5.749-6.7-1.303-3.153-4.925-3.496-8.31-4.334z"></path>
<path d="M22.688.297C10.26.297.188 10.37.188 22.797c0 12.426 10.073 22.5 22.5 22.5s22.5-10.074 22.5-22.5c0-12.427-10.073-22.5-22.5-22.5zm5.756 35.23a6.915 6.915 0 0 1-3.688-1.068c-.69.127-1.4.198-2.13.198-6.457 0-11.687-5.282-11.687-11.798 0-.63.049-1.253.145-1.859a7.111 7.111 0 0 1-1.124-3.853c0-3.909 3.12-7.078 6.975-7.078 1.405 0 2.71.423 3.81 1.15a11.348 11.348 0 0 1 1.883-.157c6.455 0 11.688 5.284 11.688 11.8 0 .54-.04 1.074-.11 1.6a7.119 7.119 0 0 1 1.213 3.987c0 3.91-3.122 7.077-6.975 7.077z"></path>
	<!-- <path d="M298.473,298.13c-3.38-0.838-1.53-3.789,1.209-3.745c2.658,0.043,4.01,2.907,5.215,2.759
		c1.208-0.149,2.236-1.994,0.338-3.645c-1.643-1.43-3.718-2.218-6.907-1.922c-2.502,0.232-4.878,1.873-5.168,5.074
		c-0.29,3.203,3.431,4.829,6.377,5.273c2.064,0.31,4.88,1.329,3.189,3.299c-1.554,1.813-4.493,0.692-5.266,0.2
		c-0.773-0.495-1.644-2.269-3.094-2.17c-1.452,0.097-2.166,2.04-0.385,3.744c1.595,1.526,3.334,2.364,7.052,2.167
		c3.722-0.198,7.054-3.546,5.749-6.7C305.479,299.311,301.857,298.968,298.473,298.13z"/>
	<path d="M300,277.5c-12.427,0-22.5,10.073-22.5,22.5c0,12.426,10.073,22.5,22.5,22.5
		c12.427,0,22.5-10.074,22.5-22.5C322.5,287.573,312.427,277.5,300,277.5z M305.756,312.729c-1.353,0-2.616-0.394-3.688-1.067
		c-0.69,0.127-1.4,0.198-2.129,0.198c-6.458,0-11.688-5.282-11.688-11.798c0-0.631,0.049-1.253,0.145-1.859
		c-0.711-1.109-1.124-2.43-1.124-3.853c0-3.909,3.121-7.078,6.975-7.078c1.405,0,2.711,0.423,3.81,1.149
		c0.612-0.103,1.242-0.156,1.883-0.156c6.455,0,11.688,5.284,11.688,11.799c0,0.541-0.039,1.075-0.109,1.601
		c0.765,1.135,1.211,2.508,1.212,3.987C312.731,309.562,309.609,312.729,305.756,312.729z"/> -->
</g>
</svg>
